<svg xmlns="http://www.w3.org/2000/svg" viewBox="0 0 32 32"><path d="M9.9 17.1L16 20l6.1-2.8c-1.3-2-3.6-3.4-6.1-3.4-2.6-.1-4.8 1.3-6.1 3.3zm-3-1.4l1.3.6c1.6-2.6 4.5-4.4 7.8-4.4s6.2 1.8 7.8 4.4l1.3-.6v-3.8H6.9zm-1.8-.8l-4.3-2-.8 1.6 5.1 2.3V25L0 27.5l.8 1.7 4.3-2V32h21.8v-5l4.4 2.1.7-1.7-5.1-2.4v-8.1l5.1-2.4-.8-1.7-4.3 2v-4.7H5.1zM7.4 18l-.5-.2v2.4a11.95 11.95 0 0 1 .5-2.2zm1.7.7l4.8 2.2-4.8 2.2c-.2-.7-.3-1.4-.3-2.2-.1-.7.1-1.4.3-2.2zm-2.2 5.5l.5-.2c-.2-.6-.4-1.3-.4-2.1v2.3zm1.3 1.5l-1.2.6V30h8.1c-3-.3-5.5-1.9-6.9-4.3zm1.7-.8L16 22l6.1 2.8c-1.3 2.1-3.6 3.4-6.2 3.4-2.5.1-4.8-1.3-6-3.3zm15.2 1.3l-1.3-.6c-1.4 2.4-4 4.2-6.9 4.4h8.2zm-.5-2.3l.5.3v-6.4l-.6.2c.3 1 .5 1.9.5 3 .1 1-.1 2-.4 2.9zm-1.7-.7L18.2 21l4.7-2.2c.2.7.4 1.5.4 2.2-.1.8-.2 1.5-.4 2.2z" fill-rule="evenodd"/></svg>