<svg xmlns="http://www.w3.org/2000/svg" viewBox="0 0 32 32"><path d="M16.225 12.553zm9.16 8.56c-.826-.225-1.577-.45-2.478-.45-.526 0-.976.15-1.502.3l-5.18 5.18c-.3.3-.976.526-1.276.075-.375-.3-.3-.826 0-1.126l3.154-3.154-.225-.225-3.604 3.604c-.3.3-.9.3-1.2 0a.818.818 0 0 1 0-1.126l3.38-3.38H16l-3.23 3.154a.7.7 0 0 1-1.126 0c-.3-.3-.375-.826 0-1.126l1.352-1.352h-.45l-1.05 1.05c-.375.3-.9.3-1.2 0s-.3-.826 0-1.2l.3-.3c-.526-.15-.976-.3-1.502-.3-.9 0-1.652.225-2.478.45l1.877 9.536H23.5zm-5.932-9L21.63 10l4.73 4.655-2.102 2.102a.95.95 0 0 1 0 1.352l-1.126 1.126c.9 0 1.727.3 2.553.526l.225-1.276h1.877L24.935 32H7.065L4.212 18.56H6.1l.225 1.276c.9-.225 1.727-.526 2.703-.526.9 0 1.727.45 2.628.6l3.904-3.904-.225-.225-1.502 1.502a1.314 1.314 0 0 1-1.877 0l-.225-.225 4.505-4.505c.9-.9 2.253-1.05 3.23-.45zM15.1 19.386l.3-.3-.225-.225-.676.676c.15-.075.375-.075.6-.15z" fill-rule="evenodd"/></svg>